<svg xmlns="http://www.w3.org/2000/svg" viewBox="0 0 80 80">
  <defs>
    <linearGradient id="fsGrad" x1="0%" y1="0%" x2="100%" y2="100%">
      <stop offset="0%" stop-color="#8b5cf6" />
      <stop offset="100%" stop-color="#22d3ee" />
    </linearGradient>
  </defs>
  <rect width="80" height="80" rx="18" fill="#08080f" />
  <g transform="translate(7 0)">
    <path d="M 15 65 L 15 15 L 35 15 L 35 20 L 20 20 L 20 37 L 32 37 L 32 42 L 20 42 L 20 65 Z"
          fill="none" stroke="url(#fsGrad)" stroke-width="4.5" />
    <path d="M 55 25 C 55 19 49 15 43 15 C 37 15 43 15 43 15 C 37 15 33 19 33 25 C 33 31 37 33 43 35 C 49 37 55 39 55 45 C 55 51 49 55 43 55 C 37 55 33 51 33 45"
          fill="none" stroke="url(#fsGrad)" stroke-width="4.5" stroke-linecap="round" />
  </g>
</svg>
